<svg width="40.000000" height="40.000000" viewBox="0 0 40 40" fill="none" xmlns="http://www.w3.org/2000/svg" xmlns:xlink="http://www.w3.org/1999/xlink">
	<desc>
			Created with Pixso.
	</desc>
	<defs>
		<clipPath id="clip7_172">
			<rect id="instagram-2016-5 1" rx="0.000000" width="39.000000" height="39.000000" transform="translate(0.500000 0.500000)" fill="white" fill-opacity="0"/>
		</clipPath>
		<radialGradient gradientTransform="translate(5.31509 40.189) rotate(0) scale(52.2166 52.2166)" cx="0.000000" cy="0.000000" r="1.000000" id="paint_radial_7_173_0" gradientUnits="userSpaceOnUse">
			<stop offset="0.090000" stop-color="#FA8F21"/>
			<stop offset="0.780000" stop-color="#D82D7E"/>
		</radialGradient>
		<radialGradient gradientTransform="translate(24.2591 41.981) rotate(0) scale(41.1539 41.1539)" cx="0.000000" cy="0.000000" r="1.000000" id="paint_radial_7_174_0" gradientUnits="userSpaceOnUse">
			<stop offset="0.640000" stop-color="#8C3AAA" stop-opacity="0.000000"/>
			<stop offset="1.000000" stop-color="#8C3AAA"/>
		</radialGradient>
	</defs>
	<rect id="instagram-2016-5 1" rx="0.000000" width="39.000000" height="39.000000" transform="translate(0.500000 0.500000)" fill="#FFFFFF" fill-opacity="0"/>
	<g clip-path="url(#clip7_172)">
		<path id="Vector" d="M13.33 20C13.33 16.31 16.31 13.33 20 13.33C23.68 13.33 26.66 16.31 26.66 20C26.66 23.68 23.68 26.66 20 26.66C16.31 26.66 13.33 23.68 13.33 20ZM9.73 20C9.73 25.67 14.32 30.26 20 30.26C25.67 30.26 30.27 25.67 30.27 20C30.27 14.32 25.67 9.73 20 9.73C14.32 9.73 9.73 14.32 9.73 20ZM28.27 9.32C28.27 9.79 28.41 10.26 28.68 10.65C28.94 11.05 29.31 11.35 29.75 11.54C30.19 11.72 30.67 11.77 31.14 11.67C31.61 11.58 32.03 11.35 32.37 11.02C32.7 10.68 32.93 10.25 33.03 9.79C33.12 9.32 33.07 8.84 32.89 8.4C32.71 7.96 32.4 7.59 32.01 7.32C31.61 7.06 31.15 6.92 30.67 6.92L30.67 6.92C30.04 6.92 29.43 7.17 28.98 7.62C28.53 8.07 28.27 8.68 28.27 9.32ZM11.92 36.27C9.97 36.19 8.91 35.86 8.2 35.59C7.27 35.22 6.6 34.79 5.9 34.09C5.2 33.39 4.77 32.73 4.41 31.79C4.13 31.09 3.81 30.03 3.72 28.08C3.62 25.97 3.6 25.34 3.6 20C3.6 14.65 3.62 14.02 3.72 11.91C3.81 9.96 4.13 8.9 4.41 8.2C4.77 7.26 5.2 6.6 5.9 5.9C6.6 5.2 7.27 4.76 8.2 4.4C8.91 4.13 9.97 3.8 11.92 3.71C14.02 3.62 14.66 3.6 20 3.6C25.33 3.6 25.97 3.62 28.08 3.71C30.03 3.8 31.09 4.13 31.79 4.4C32.73 4.76 33.39 5.2 34.09 5.9C34.79 6.6 35.23 7.26 35.59 8.2C35.86 8.9 36.19 9.96 36.28 11.91C36.37 14.02 36.39 14.65 36.39 20C36.39 25.34 36.37 25.97 36.28 28.08C36.19 30.03 35.86 31.09 35.59 31.79C35.23 32.73 34.79 33.39 34.09 34.09C33.39 34.79 32.73 35.22 31.79 35.59C31.09 35.86 30.03 36.19 28.08 36.27C25.97 36.37 25.34 36.39 20 36.39C14.65 36.39 14.02 36.37 11.92 36.27ZM11.75 0.12C9.62 0.21 8.17 0.55 6.9 1.05C5.58 1.56 4.47 2.24 3.35 3.35C2.24 4.46 1.56 5.58 1.05 6.89C0.55 8.17 0.21 9.62 0.12 11.75C0.02 13.88 0 14.56 0 20C0 25.43 0.02 26.11 0.12 28.24C0.21 30.37 0.55 31.82 1.05 33.1C1.56 34.41 2.24 35.53 3.35 36.64C4.47 37.75 5.58 38.43 6.9 38.94C8.17 39.44 9.62 39.78 11.75 39.87C13.88 39.97 14.56 40 20 40C25.43 40 26.11 39.97 28.24 39.87C30.37 39.78 31.82 39.44 33.1 38.94C34.41 38.43 35.53 37.75 36.64 36.64C37.75 35.53 38.43 34.41 38.95 33.1C39.44 31.82 39.78 30.37 39.87 28.24C39.97 26.11 39.99 25.43 39.99 20C39.99 14.56 39.97 13.88 39.87 11.75C39.78 9.62 39.44 8.17 38.95 6.89C38.43 5.58 37.75 4.47 36.64 3.35C35.53 2.24 34.41 1.56 33.1 1.05C31.82 0.55 30.37 0.21 28.24 0.12C26.11 0.02 25.43 0 20 0C14.57 0 13.88 0.02 11.75 0.12Z" fill="url(#paint_radial_7_173_0)" fill-opacity="1.000000" fill-rule="nonzero"/>
		<path id="Vector" d="M13.33 20C13.33 16.31 16.31 13.33 20 13.33C23.68 13.33 26.66 16.31 26.66 20C26.66 23.68 23.68 26.66 20 26.66C16.31 26.66 13.33 23.68 13.33 20ZM9.73 20C9.73 25.67 14.32 30.26 20 30.26C25.67 30.26 30.27 25.67 30.27 20C30.27 14.32 25.67 9.73 20 9.73C14.32 9.73 9.73 14.32 9.73 20ZM28.27 9.32C28.27 9.79 28.41 10.26 28.68 10.65C28.94 11.05 29.31 11.35 29.75 11.54C30.19 11.72 30.67 11.77 31.14 11.67C31.61 11.58 32.03 11.35 32.37 11.02C32.7 10.68 32.93 10.25 33.03 9.79C33.12 9.32 33.07 8.84 32.89 8.4C32.71 7.96 32.4 7.59 32.01 7.32C31.61 7.06 31.15 6.92 30.67 6.92L30.67 6.92C30.04 6.92 29.43 7.17 28.98 7.62C28.53 8.07 28.27 8.68 28.27 9.32ZM11.92 36.27C9.97 36.19 8.91 35.86 8.2 35.59C7.27 35.22 6.6 34.79 5.9 34.09C5.2 33.39 4.77 32.73 4.41 31.79C4.13 31.09 3.81 30.03 3.72 28.08C3.62 25.97 3.6 25.34 3.6 20C3.6 14.65 3.62 14.02 3.72 11.91C3.81 9.96 4.13 8.9 4.41 8.2C4.77 7.26 5.2 6.6 5.9 5.9C6.6 5.2 7.27 4.76 8.2 4.4C8.91 4.13 9.97 3.8 11.92 3.71C14.02 3.62 14.66 3.6 20 3.6C25.33 3.6 25.97 3.62 28.08 3.71C30.03 3.8 31.09 4.13 31.79 4.4C32.73 4.76 33.39 5.2 34.09 5.9C34.79 6.6 35.23 7.26 35.59 8.2C35.86 8.9 36.19 9.96 36.28 11.91C36.37 14.02 36.39 14.65 36.39 20C36.39 25.34 36.37 25.97 36.28 28.08C36.19 30.03 35.86 31.09 35.59 31.79C35.23 32.73 34.79 33.39 34.09 34.09C33.39 34.79 32.73 35.22 31.79 35.59C31.09 35.86 30.03 36.19 28.08 36.27C25.97 36.37 25.34 36.39 20 36.39C14.65 36.39 14.02 36.37 11.92 36.27ZM11.75 0.12C9.62 0.21 8.17 0.55 6.9 1.05C5.58 1.56 4.47 2.24 3.35 3.35C2.24 4.46 1.56 5.58 1.05 6.89C0.55 8.17 0.21 9.62 0.12 11.75C0.02 13.88 0 14.56 0 20C0 25.43 0.02 26.11 0.12 28.24C0.21 30.37 0.55 31.82 1.05 33.1C1.56 34.41 2.24 35.53 3.35 36.64C4.47 37.75 5.58 38.43 6.9 38.94C8.17 39.44 9.62 39.78 11.75 39.87C13.88 39.97 14.56 40 20 40C25.43 40 26.11 39.97 28.24 39.87C30.37 39.78 31.82 39.44 33.1 38.94C34.41 38.43 35.53 37.75 36.64 36.64C37.75 35.53 38.43 34.41 38.95 33.1C39.44 31.82 39.78 30.37 39.87 28.24C39.97 26.11 39.99 25.43 39.99 20C39.99 14.56 39.97 13.88 39.87 11.75C39.78 9.62 39.44 8.17 38.95 6.89C38.43 5.58 37.75 4.47 36.64 3.35C35.53 2.24 34.41 1.56 33.1 1.05C31.82 0.55 30.37 0.21 28.24 0.12C26.11 0.02 25.43 0 20 0C14.57 0 13.88 0.02 11.75 0.12Z" fill="url(#paint_radial_7_174_0)" fill-opacity="1.000000" fill-rule="nonzero"/>
	</g>
</svg>
