<svg width="39.984009" height="40.000000" viewBox="0 0 39.984 40" fill="none" xmlns="http://www.w3.org/2000/svg" xmlns:xlink="http://www.w3.org/1999/xlink">
	<desc>
			Created with Pixso.
	</desc>
	<defs>
		<clipPath id="clip7_178">
			<rect id="pinterest-3 1" rx="0.000000" width="38.984001" height="39.000000" transform="translate(0.500000 0.500000)" fill="white" fill-opacity="0"/>
		</clipPath>
	</defs>
	<rect id="pinterest-3 1" rx="0.000000" width="38.984001" height="39.000000" transform="translate(0.500000 0.500000)" fill="#FFFFFF" fill-opacity="0"/>
	<g clip-path="url(#clip7_178)">
		<path id="Shape_1_copy_3_25_" d="M39.98 20C39.98 31.04 31.03 40 19.99 40C8.95 40 0 31.04 0 20C0 8.95 8.95 0 19.99 0C31.03 0 39.98 8.95 39.98 20Z" fill="#E13138" fill-opacity="1.000000" fill-rule="evenodd"/>
		<path id="Pinterest_Icon" d="M20.77 10.7C15.18 10.7 12.36 14.65 12.36 17.95C12.36 19.95 13.13 21.71 14.77 22.38C15.04 22.49 15.28 22.39 15.36 22.09C15.41 21.89 15.66 21.37 15.72 21.16C15.8 20.87 15.76 20.77 15.55 20.51C15.08 19.96 14.78 19.39 14.78 18.38C14.78 15.02 16.88 12.63 20.44 12.63C23.6 12.63 25.34 14.59 25.34 17.13C25.34 20.47 23.83 23.19 21.6 23.19C20.37 23.19 19.45 22.3 19.75 21.07C20.1 19.6 20.79 18.01 20.79 16.95C20.79 16 20.27 15.32 19.2 15.32C17.95 15.32 16.93 16.49 16.93 18.21C16.93 19.31 17.29 19.85 17.29 19.85C17.29 19.85 16.02 25.42 15.79 26.37C15.34 28.25 15.72 30.54 15.76 30.77C15.77 30.91 15.96 30.94 16.04 30.84C16.15 30.69 17.65 28.86 18.16 27.04C18.31 26.53 19 23.86 19 23.86C19.4 24.63 20.6 25.12 21.87 25.12C25.65 25.12 28.22 21.9 28.22 17.36C28.22 13.91 25.26 10.7 20.77 10.7Z" fill="#FFFFFF" fill-opacity="1.000000" fill-rule="nonzero"/>
	</g>
</svg>
